<svg width="12" height="11" viewBox="0 0 12 11" fill="none" xmlns="http://www.w3.org/2000/svg">
<path d="M2.25075 8H9.75075C10.1632 8 10.5008 7.6625 10.5008 7.25V1.25C10.5008 0.8375 10.1632 0.5 9.75075 0.5H2.25075C1.83825 0.5 1.50075 0.8375 1.50075 1.25V7.25C1.50075 7.6625 1.83825 8 2.25075 8ZM2.25075 1.25H9.75075V7.25H2.25075V1.25ZM11.6258 9.5H0.375C0.16875 9.5 0 9.66875 0 9.875C0 10.0813 0.16875 10.25 0.375 10.25H11.6258C11.832 10.25 12.0007 10.0813 12.0007 9.875C12.0007 9.66875 11.832 9.5 11.6258 9.5Z" fill="#B2B2B2"/>
</svg>
