<svg width="8" height="7" viewBox="0 0 8 7" fill="none" xmlns="http://www.w3.org/2000/svg">
<path d="M7.31588 0.6576C6.90613 0.262091 6.35599 0.028338 5.77454 0.00269383C5.19308 -0.0229504 4.62279 0.161387 4.17674 0.519152C4.12544 0.556198 4.06363 0.57756 3.99942 0.580441C3.93482 0.578639 3.8725 0.557169 3.82153 0.519152C3.37569 0.161184 2.80544 -0.0232916 2.22401 0.00235638C1.64257 0.0280044 1.09249 0.2619 0.682968 0.6576C0.242528 1.07896 0 1.63932 0 2.23525C0 2.83117 0.242528 3.39153 0.668096 3.79757L3.22036 6.65572C3.31653 6.76366 3.43605 6.85034 3.57065 6.90978C3.70526 6.96922 3.85174 7 4 7C4.14825 7 4.29473 6.96922 4.42934 6.90978C4.56394 6.85034 4.68346 6.76366 4.77963 6.65572L7.31645 3.81289C7.53374 3.6062 7.70603 3.36035 7.82336 3.08955C7.94068 2.81875 8.00072 2.52839 7.99999 2.23525C8.00049 1.94209 7.94029 1.65174 7.82287 1.38096C7.70545 1.11018 7.53314 0.864333 7.31588 0.6576Z" fill="white"/>
</svg>
