<svg width="24" height="24" viewBox="0 0 24 24" fill="none" xmlns="http://www.w3.org/2000/svg">
<circle cx="12" cy="12" r="11.5" fill="#1DB954" stroke="#191414"/>
<path d="M18.6318 6.37475C17.8123 5.54792 16.712 5.05924 15.5491 5.00563C14.3862 4.95202 13.2456 5.33739 12.3535 6.08532C12.2509 6.16276 12.1273 6.20742 11.9988 6.21344C11.8696 6.20968 11.745 6.16479 11.6431 6.08532C10.7514 5.33696 9.61088 4.95131 8.44801 5.00493C7.28515 5.05854 6.18497 5.54752 5.36594 6.37475C4.48506 7.25563 4 8.42708 4 9.6729C4 10.9187 4.48506 12.0902 5.33619 12.939L10.4407 18.9141C10.6331 19.1398 10.8721 19.321 11.1413 19.4453C11.4105 19.5695 11.7035 19.6339 12 19.6339C12.2965 19.6339 12.5895 19.5695 12.8587 19.4453C13.1279 19.321 13.3669 19.1398 13.5593 18.9141L18.6329 12.9711C19.0675 12.539 19.4121 12.025 19.6467 11.4589C19.8814 10.8928 20.0014 10.2857 20 9.6729C20.001 9.06004 19.8806 8.45306 19.6457 7.88698C19.4109 7.3209 19.0663 6.80693 18.6318 6.37475Z" fill="white"/>
</svg>
