<svg width="8" height="8" viewBox="0 0 8 8" fill="none" xmlns="http://www.w3.org/2000/svg">
<path fill-rule="evenodd" clip-rule="evenodd" d="M2.54806 1.1511V5.66793C2.28499 5.34246 1.88317 5.13344 1.43328 5.13344C0.642986 5.13344 0 5.77642 0 6.56672C0 7.35701 0.642986 8 1.43328 8C2.22358 8 2.86656 7.35701 2.86656 6.56672V1.4089L7.64417 0.393157V4.69798C7.3812 4.3725 6.97948 4.16348 6.52939 4.16348C5.7391 4.16348 5.09611 4.80647 5.09611 5.59677C5.09611 6.38706 5.7391 7.03005 6.52939 7.03005C7.31969 7.03005 7.96267 6.38706 7.96267 5.59677V0L2.54806 1.1511ZM1.43328 7.68149C0.818563 7.68149 0.318507 7.18134 0.318507 6.56672C0.318507 5.9519 0.818563 5.45194 1.43328 5.45194C2.048 5.45194 2.54806 5.9519 2.54806 6.56672C2.54806 7.18124 2.0478 7.68149 1.43328 7.68149ZM6.52939 6.71154C5.91467 6.71154 5.41462 6.21148 5.41462 5.59677C5.41462 4.98225 5.91467 4.48199 6.52939 4.48199C7.14411 4.48199 7.64417 4.98225 7.64417 5.59677C7.64417 6.21168 7.14391 6.71154 6.52939 6.71154Z" fill="#B2B2B2"/>
</svg>
