<svg width="15" height="16" viewBox="0 0 15 16" fill="none" xmlns="http://www.w3.org/2000/svg">
<path d="M11.3643 10.9974L14.7791 14.9997L13.6042 16.0002L10.1985 12.0071C9.09699 12.7415 7.88222 13.1087 6.55421 13.1087C5.66684 13.1087 4.81773 12.9358 4.00689 12.59C3.19604 12.2443 2.49839 11.7792 1.91393 11.1947C1.32947 10.6103 0.864375 9.91266 0.518639 9.10179C0.172904 8.29092 2.40989e-05 7.44181 2.51861e-09 6.55446C-2.40939e-05 5.66711 0.172856 4.818 0.518639 4.00713C0.864423 3.19626 1.32952 2.49861 1.91393 1.91417C2.49834 1.32974 3.19599 0.864643 4.00689 0.518883C4.81778 0.173124 5.66689 0.000244141 6.55421 0.000244141C7.44154 0.000244141 8.29065 0.173124 9.10154 0.518883C9.91244 0.864643 10.6101 1.32974 11.1945 1.91417C11.7789 2.49861 12.244 3.19626 12.5898 4.00713C12.9356 4.818 13.1085 5.66711 13.1084 6.55446C13.1084 7.11747 13.0381 7.66824 12.8973 8.20677C12.7566 8.74531 12.5561 9.24713 12.296 9.71223C12.0359 10.1773 11.7254 10.6057 11.3643 10.9974H11.3643ZM6.55425 11.5665C7.23353 11.5665 7.88222 11.4333 8.50031 11.1671C9.11841 10.9009 9.65082 10.5444 10.0975 10.0977C10.5443 9.65099 10.9007 9.11858 11.167 8.50049C11.4332 7.88239 11.5663 7.2337 11.5663 6.55442C11.5663 5.87514 11.4332 5.22646 11.167 4.60836C10.9007 3.99026 10.5443 3.45784 10.0975 3.01109C9.65082 2.56434 9.11841 2.20787 8.50031 1.94168C7.88222 1.67549 7.23353 1.54239 6.55425 1.54239C5.87497 1.54239 5.22628 1.67549 4.60819 1.94168C3.99009 2.20787 3.45767 2.56436 3.01092 3.01113C2.56417 3.4579 2.2077 3.99031 1.94151 4.60836C1.67532 5.22641 1.54222 5.8751 1.54222 6.55442C1.54222 7.23375 1.67532 7.88244 1.94151 8.50049C2.2077 9.11854 2.56418 9.65095 3.01096 10.0977C3.45773 10.5445 3.99014 10.901 4.60819 11.1671C5.22624 11.4333 5.87492 11.5664 6.55425 11.5665Z" fill="white"/>
</svg>
