<svg width="14" height="11" viewBox="0 0 14 11" fill="none" xmlns="http://www.w3.org/2000/svg">
<path d="M3.45205 3.62727L4.12329 2.86364C3.06849 1.62273 1.53425 0.954545 0 0.954545V1.90909C1.24658 1.90909 2.49315 2.48182 3.35616 3.43636L3.45205 3.62727ZM10.6438 8.11364C9.49315 8.11364 8.43836 7.63636 7.57534 6.87273L7 7.63636C7.9589 8.59091 9.30137 9.06818 10.6438 9.06818V10.5L14 8.59091L10.6438 6.68182V8.11364ZM10.6438 2.38636V3.81818L14 1.90909L10.6438 0V1.43182C9.10959 1.43182 7.57534 2.1 6.61644 3.34091L3.35616 7.06364C2.49315 8.01818 1.24658 8.59091 0 8.59091V9.54545C1.53425 9.54545 3.06849 8.87727 4.0274 7.63636L7.28767 3.91364C8.15068 2.95909 9.39726 2.38636 10.6438 2.38636Z" fill="#1DB954"/>
</svg>
