<svg width="16" height="16" viewBox="0 0 16 16" fill="none" xmlns="http://www.w3.org/2000/svg">
<path d="M7.99999 14.7382L5.72295 16L4.48261 13.6948L1.89183 13.5126L2.08197 10.8958L0 9.32745L1.56027 7.22997L0.648116 4.77336L3.08312 3.86108L3.63039 1.29623L6.16705 1.85877L7.99999 0L9.83291 1.85877L12.3696 1.29623L12.9168 3.86108L15.3519 4.77336L14.4397 7.22997L16 9.32745L13.918 10.8958L14.1081 13.5126L11.5174 13.6948L10.277 16L7.99999 14.7382Z" fill="#2E77D0"/>
<path d="M11.2757 5.04346L6.80115 10.3361L4.91246 8.10142L4.58008 8.49438L6.80115 11.1221L11.6596 5.37467L11.2757 5.04346Z" fill="white"/>
</svg>
